<?xml version="1.0" encoding="utf-8" standalone="no"?>
<!DOCTYPE svg PUBLIC "-//W3C//DTD SVG 1.1//EN"
  "http://www.w3.org/Graphics/SVG/1.1/DTD/svg11.dtd">
<!-- Created with matplotlib (https://matplotlib.org/) -->
<svg height="360pt" version="1.1" viewBox="0 0 720 360" width="720pt" xmlns="http://www.w3.org/2000/svg" xmlns:xlink="http://www.w3.org/1999/xlink">
 <defs>
  <style type="text/css">
*{stroke-linecap:butt;stroke-linejoin:round;}
  </style>
 </defs>
 <g id="figure_1">
  <g id="patch_1">
   <path d="M 0 360 
L 720 360 
L 720 0 
L 0 0 
z
" style="fill:#ffffff;"/>
  </g>
  <g id="axes_1">
   <g id="patch_2">
    <path d="M 90 315 
L 648 315 
L 648 43.2 
L 90 43.2 
z
" style="fill:#ffffff;"/>
   </g>
   <g id="patch_3">
    <path clip-path="url(#p36797d2564)" d="M 115.363636 315 
L 117.9 315 
L 117.9 144.602213 
L 115.363636 144.602213 
z
" style="fill:#1f77b4;"/>
   </g>
   <g id="patch_4">
    <path clip-path="url(#p36797d2564)" d="M 117.9 315 
L 120.436364 315 
L 120.436364 126.401746 
L 117.9 126.401746 
z
" style="fill:#1f77b4;"/>
   </g>
   <g id="patch_5">
    <path clip-path="url(#p36797d2564)" d="M 120.436364 315 
L 122.972727 315 
L 122.972727 89.746514 
L 120.436364 89.746514 
z
" style="fill:#1f77b4;"/>
   </g>
   <g id="patch_6">
    <path clip-path="url(#p36797d2564)" d="M 122.972727 315 
L 125.509091 315 
L 125.509091 89.819171 
L 122.972727 89.819171 
z
" style="fill:#1f77b4;"/>
   </g>
   <g id="patch_7">
    <path clip-path="url(#p36797d2564)" d="M 125.509091 315 
L 128.045455 315 
L 128.045455 69.765961 
L 125.509091 69.765961 
z
" style="fill:#1f77b4;"/>
   </g>
   <g id="patch_8">
    <path clip-path="url(#p36797d2564)" d="M 128.045455 315 
L 130.581818 315 
L 130.581818 56.142857 
L 128.045455 56.142857 
z
" style="fill:#1f77b4;"/>
   </g>
   <g id="patch_9">
    <path clip-path="url(#p36797d2564)" d="M 130.581818 315 
L 133.118182 315 
L 133.118182 73.562266 
L 130.581818 73.562266 
z
" style="fill:#1f77b4;"/>
   </g>
   <g id="patch_10">
    <path clip-path="url(#p36797d2564)" d="M 133.118182 315 
L 135.654545 315 
L 135.654545 64.207735 
L 133.118182 64.207735 
z
" style="fill:#1f77b4;"/>
   </g>
   <g id="patch_11">
    <path clip-path="url(#p36797d2564)" d="M 135.654545 315 
L 138.190909 315 
L 138.190909 73.925549 
L 135.654545 73.925549 
z
" style="fill:#1f77b4;"/>
   </g>
   <g id="patch_12">
    <path clip-path="url(#p36797d2564)" d="M 138.190909 315 
L 140.727273 315 
L 140.727273 86.713103 
L 138.190909 86.713103 
z
" style="fill:#1f77b4;"/>
   </g>
   <g id="patch_13">
    <path clip-path="url(#p36797d2564)" d="M 140.727273 315 
L 143.263636 315 
L 143.263636 78.23045 
L 140.727273 78.23045 
z
" style="fill:#1f77b4;"/>
   </g>
   <g id="patch_14">
    <path clip-path="url(#p36797d2564)" d="M 143.263636 315 
L 145.8 315 
L 145.8 100.663161 
L 143.263636 100.663161 
z
" style="fill:#1f77b4;"/>
   </g>
   <g id="patch_15">
    <path clip-path="url(#p36797d2564)" d="M 145.8 315 
L 148.336364 315 
L 148.336364 94.832473 
L 145.8 94.832473 
z
" style="fill:#1f77b4;"/>
   </g>
   <g id="patch_16">
    <path clip-path="url(#p36797d2564)" d="M 148.336364 315 
L 150.872727 315 
L 150.872727 112.251882 
L 148.336364 112.251882 
z
" style="fill:#1f77b4;"/>
   </g>
   <g id="patch_17">
    <path clip-path="url(#p36797d2564)" d="M 150.872727 315 
L 153.409091 315 
L 153.409091 120.171447 
L 150.872727 120.171447 
z
" style="fill:#1f77b4;"/>
   </g>
   <g id="patch_18">
    <path clip-path="url(#p36797d2564)" d="M 153.409091 315 
L 155.945455 315 
L 155.945455 121.67907 
L 153.409091 121.67907 
z
" style="fill:#1f77b4;"/>
   </g>
   <g id="patch_19">
    <path clip-path="url(#p36797d2564)" d="M 155.945455 315 
L 158.481818 315 
L 158.481818 138.589883 
L 155.945455 138.589883 
z
" style="fill:#1f77b4;"/>
   </g>
   <g id="patch_20">
    <path clip-path="url(#p36797d2564)" d="M 158.481818 315 
L 161.018182 315 
L 161.018182 134.44846 
L 158.481818 134.44846 
z
" style="fill:#1f77b4;"/>
   </g>
   <g id="patch_21">
    <path clip-path="url(#p36797d2564)" d="M 161.018182 315 
L 163.554545 315 
L 163.554545 154.447177 
L 161.018182 154.447177 
z
" style="fill:#1f77b4;"/>
   </g>
   <g id="patch_22">
    <path clip-path="url(#p36797d2564)" d="M 163.554545 315 
L 166.090909 315 
L 166.090909 159.079032 
L 163.554545 159.079032 
z
" style="fill:#1f77b4;"/>
   </g>
   <g id="patch_23">
    <path clip-path="url(#p36797d2564)" d="M 166.090909 315 
L 168.627273 315 
L 168.627273 156.863007 
L 166.090909 156.863007 
z
" style="fill:#1f77b4;"/>
   </g>
   <g id="patch_24">
    <path clip-path="url(#p36797d2564)" d="M 168.627273 315 
L 171.163636 315 
L 171.163636 170.377126 
L 168.627273 170.377126 
z
" style="fill:#1f77b4;"/>
   </g>
   <g id="patch_25">
    <path clip-path="url(#p36797d2564)" d="M 171.163636 315 
L 173.7 315 
L 173.7 177.333992 
L 171.163636 177.333992 
z
" style="fill:#1f77b4;"/>
   </g>
   <g id="patch_26">
    <path clip-path="url(#p36797d2564)" d="M 173.7 315 
L 176.236364 315 
L 176.236364 171.939242 
L 173.7 171.939242 
z
" style="fill:#1f77b4;"/>
   </g>
   <g id="patch_27">
    <path clip-path="url(#p36797d2564)" d="M 176.236364 315 
L 178.772727 315 
L 178.772727 186.688523 
L 176.236364 186.688523 
z
" style="fill:#1f77b4;"/>
   </g>
   <g id="patch_28">
    <path clip-path="url(#p36797d2564)" d="M 178.772727 315 
L 181.309091 315 
L 181.309091 183.69144 
L 178.772727 183.69144 
z
" style="fill:#1f77b4;"/>
   </g>
   <g id="patch_29">
    <path clip-path="url(#p36797d2564)" d="M 181.309091 315 
L 183.845455 315 
L 183.845455 195.588951 
L 181.309091 195.588951 
z
" style="fill:#1f77b4;"/>
   </g>
   <g id="patch_30">
    <path clip-path="url(#p36797d2564)" d="M 183.845455 315 
L 186.381818 315 
L 186.381818 200.347956 
L 183.845455 200.347956 
z
" style="fill:#1f77b4;"/>
   </g>
   <g id="patch_31">
    <path clip-path="url(#p36797d2564)" d="M 186.381818 315 
L 188.918182 315 
L 188.918182 199.167287 
L 186.381818 199.167287 
z
" style="fill:#1f77b4;"/>
   </g>
   <g id="patch_32">
    <path clip-path="url(#p36797d2564)" d="M 188.918182 315 
L 191.454545 315 
L 191.454545 208.340177 
L 188.918182 208.340177 
z
" style="fill:#1f77b4;"/>
   </g>
   <g id="patch_33">
    <path clip-path="url(#p36797d2564)" d="M 191.454545 315 
L 193.990909 315 
L 193.990909 205.869854 
L 191.454545 205.869854 
z
" style="fill:#1f77b4;"/>
   </g>
   <g id="patch_34">
    <path clip-path="url(#p36797d2564)" d="M 193.990909 315 
L 196.527273 315 
L 196.527273 216.059936 
L 193.990909 216.059936 
z
" style="fill:#1f77b4;"/>
   </g>
   <g id="patch_35">
    <path clip-path="url(#p36797d2564)" d="M 196.527273 315 
L 199.063636 315 
L 199.063636 216.768337 
L 196.527273 216.768337 
z
" style="fill:#1f77b4;"/>
   </g>
   <g id="patch_36">
    <path clip-path="url(#p36797d2564)" d="M 199.063636 315 
L 201.6 315 
L 201.6 219.329481 
L 199.063636 219.329481 
z
" style="fill:#1f77b4;"/>
   </g>
   <g id="patch_37">
    <path clip-path="url(#p36797d2564)" d="M 201.6 315 
L 204.136364 315 
L 204.136364 224.50626 
L 201.6 224.50626 
z
" style="fill:#1f77b4;"/>
   </g>
   <g id="patch_38">
    <path clip-path="url(#p36797d2564)" d="M 204.136364 315 
L 206.672727 315 
L 206.672727 223.380084 
L 204.136364 223.380084 
z
" style="fill:#1f77b4;"/>
   </g>
   <g id="patch_39">
    <path clip-path="url(#p36797d2564)" d="M 206.672727 315 
L 209.209091 315 
L 209.209091 232.516645 
L 206.672727 232.516645 
z
" style="fill:#1f77b4;"/>
   </g>
   <g id="patch_40">
    <path clip-path="url(#p36797d2564)" d="M 209.209091 315 
L 211.745455 315 
L 211.745455 233.552001 
L 209.209091 233.552001 
z
" style="fill:#1f77b4;"/>
   </g>
   <g id="patch_41">
    <path clip-path="url(#p36797d2564)" d="M 211.745455 315 
L 214.281818 315 
L 214.281818 232.207855 
L 211.745455 232.207855 
z
" style="fill:#1f77b4;"/>
   </g>
   <g id="patch_42">
    <path clip-path="url(#p36797d2564)" d="M 214.281818 315 
L 216.818182 315 
L 216.818182 237.875066 
L 214.281818 237.875066 
z
" style="fill:#1f77b4;"/>
   </g>
   <g id="patch_43">
    <path clip-path="url(#p36797d2564)" d="M 216.818182 315 
L 219.354545 315 
L 219.354545 241.453402 
L 216.818182 241.453402 
z
" style="fill:#1f77b4;"/>
   </g>
   <g id="patch_44">
    <path clip-path="url(#p36797d2564)" d="M 219.354545 315 
L 221.890909 315 
L 221.890909 240.21824 
L 219.354545 240.21824 
z
" style="fill:#1f77b4;"/>
   </g>
   <g id="patch_45">
    <path clip-path="url(#p36797d2564)" d="M 221.890909 315 
L 224.427273 315 
L 224.427273 246.702838 
L 221.890909 246.702838 
z
" style="fill:#1f77b4;"/>
   </g>
   <g id="patch_46">
    <path clip-path="url(#p36797d2564)" d="M 224.427273 315 
L 226.963636 315 
L 226.963636 246.157914 
L 224.427273 246.157914 
z
" style="fill:#1f77b4;"/>
   </g>
   <g id="patch_47">
    <path clip-path="url(#p36797d2564)" d="M 226.963636 315 
L 229.5 315 
L 229.5 250.608128 
L 226.963636 250.608128 
z
" style="fill:#1f77b4;"/>
   </g>
   <g id="patch_48">
    <path clip-path="url(#p36797d2564)" d="M 229.5 315 
L 232.036364 315 
L 232.036364 254.277284 
L 229.5 254.277284 
z
" style="fill:#1f77b4;"/>
   </g>
   <g id="patch_49">
    <path clip-path="url(#p36797d2564)" d="M 232.036364 315 
L 234.572727 315 
L 234.572727 252.951302 
L 232.036364 252.951302 
z
" style="fill:#1f77b4;"/>
   </g>
   <g id="patch_50">
    <path clip-path="url(#p36797d2564)" d="M 234.572727 315 
L 237.109091 315 
L 237.109091 257.310695 
L 234.572727 257.310695 
z
" style="fill:#1f77b4;"/>
   </g>
   <g id="patch_51">
    <path clip-path="url(#p36797d2564)" d="M 237.109091 315 
L 239.645455 315 
L 239.645455 256.547801 
L 237.109091 256.547801 
z
" style="fill:#1f77b4;"/>
   </g>
   <g id="patch_52">
    <path clip-path="url(#p36797d2564)" d="M 239.645455 315 
L 242.181818 315 
L 242.181818 262.632788 
L 239.645455 262.632788 
z
" style="fill:#1f77b4;"/>
   </g>
   <g id="patch_53">
    <path clip-path="url(#p36797d2564)" d="M 242.181818 315 
L 244.718182 315 
L 244.718182 263.795293 
L 242.181818 263.795293 
z
" style="fill:#1f77b4;"/>
   </g>
   <g id="patch_54">
    <path clip-path="url(#p36797d2564)" d="M 244.718182 315 
L 247.254545 315 
L 247.254545 261.779073 
L 244.718182 261.779073 
z
" style="fill:#1f77b4;"/>
   </g>
   <g id="patch_55">
    <path clip-path="url(#p36797d2564)" d="M 247.254545 315 
L 249.790909 315 
L 249.790909 267.718747 
L 247.254545 267.718747 
z
" style="fill:#1f77b4;"/>
   </g>
   <g id="patch_56">
    <path clip-path="url(#p36797d2564)" d="M 249.790909 315 
L 252.327273 315 
L 252.327273 265.32108 
L 249.790909 265.32108 
z
" style="fill:#1f77b4;"/>
   </g>
   <g id="patch_57">
    <path clip-path="url(#p36797d2564)" d="M 252.327273 315 
L 254.863636 315 
L 254.863636 270.552352 
L 252.327273 270.552352 
z
" style="fill:#1f77b4;"/>
   </g>
   <g id="patch_58">
    <path clip-path="url(#p36797d2564)" d="M 254.863636 315 
L 257.4 315 
L 257.4 272.423259 
L 254.863636 272.423259 
z
" style="fill:#1f77b4;"/>
   </g>
   <g id="patch_59">
    <path clip-path="url(#p36797d2564)" d="M 257.4 315 
L 259.936364 315 
L 259.936364 268.826759 
L 257.4 268.826759 
z
" style="fill:#1f77b4;"/>
   </g>
   <g id="patch_60">
    <path clip-path="url(#p36797d2564)" d="M 259.936364 315 
L 262.472727 315 
L 262.472727 273.767405 
L 259.936364 273.767405 
z
" style="fill:#1f77b4;"/>
   </g>
   <g id="patch_61">
    <path clip-path="url(#p36797d2564)" d="M 262.472727 315 
L 265.009091 315 
L 265.009091 272.623064 
L 262.472727 272.623064 
z
" style="fill:#1f77b4;"/>
   </g>
   <g id="patch_62">
    <path clip-path="url(#p36797d2564)" d="M 265.009091 315 
L 267.545455 315 
L 267.545455 276.07425 
L 265.009091 276.07425 
z
" style="fill:#1f77b4;"/>
   </g>
   <g id="patch_63">
    <path clip-path="url(#p36797d2564)" d="M 267.545455 315 
L 270.081818 315 
L 270.081818 277.654531 
L 267.545455 277.654531 
z
" style="fill:#1f77b4;"/>
   </g>
   <g id="patch_64">
    <path clip-path="url(#p36797d2564)" d="M 270.081818 315 
L 272.618182 315 
L 272.618182 276.964293 
L 270.081818 276.964293 
z
" style="fill:#1f77b4;"/>
   </g>
   <g id="patch_65">
    <path clip-path="url(#p36797d2564)" d="M 272.618182 315 
L 275.154545 315 
L 275.154545 278.889692 
L 272.618182 278.889692 
z
" style="fill:#1f77b4;"/>
   </g>
   <g id="patch_66">
    <path clip-path="url(#p36797d2564)" d="M 275.154545 315 
L 277.690909 315 
L 277.690909 281.414507 
L 275.154545 281.414507 
z
" style="fill:#1f77b4;"/>
   </g>
   <g id="patch_67">
    <path clip-path="url(#p36797d2564)" d="M 277.690909 315 
L 280.227273 315 
L 280.227273 280.451808 
L 277.690909 280.451808 
z
" style="fill:#1f77b4;"/>
   </g>
   <g id="patch_68">
    <path clip-path="url(#p36797d2564)" d="M 280.227273 315 
L 282.763636 315 
L 282.763636 282.704161 
L 280.227273 282.704161 
z
" style="fill:#1f77b4;"/>
   </g>
   <g id="patch_69">
    <path clip-path="url(#p36797d2564)" d="M 282.763636 315 
L 285.3 315 
L 285.3 281.886775 
L 282.763636 281.886775 
z
" style="fill:#1f77b4;"/>
   </g>
   <g id="patch_70">
    <path clip-path="url(#p36797d2564)" d="M 285.3 315 
L 287.836364 315 
L 287.836364 283.685025 
L 285.3 283.685025 
z
" style="fill:#1f77b4;"/>
   </g>
   <g id="patch_71">
    <path clip-path="url(#p36797d2564)" d="M 287.836364 315 
L 290.372727 315 
L 290.372727 284.829365 
L 287.836364 284.829365 
z
" style="fill:#1f77b4;"/>
   </g>
   <g id="patch_72">
    <path clip-path="url(#p36797d2564)" d="M 290.372727 315 
L 292.909091 315 
L 292.909091 285.428782 
L 290.372727 285.428782 
z
" style="fill:#1f77b4;"/>
   </g>
   <g id="patch_73">
    <path clip-path="url(#p36797d2564)" d="M 292.909091 315 
L 295.445455 315 
L 295.445455 287.681135 
L 292.909091 287.681135 
z
" style="fill:#1f77b4;"/>
   </g>
   <g id="patch_74">
    <path clip-path="url(#p36797d2564)" d="M 295.445455 315 
L 297.981818 315 
L 297.981818 285.301633 
L 295.445455 285.301633 
z
" style="fill:#1f77b4;"/>
   </g>
   <g id="patch_75">
    <path clip-path="url(#p36797d2564)" d="M 297.981818 315 
L 300.518182 315 
L 300.518182 288.752819 
L 297.981818 288.752819 
z
" style="fill:#1f77b4;"/>
   </g>
   <g id="patch_76">
    <path clip-path="url(#p36797d2564)" d="M 300.518182 315 
L 303.054545 315 
L 303.054545 289.225087 
L 300.518182 289.225087 
z
" style="fill:#1f77b4;"/>
   </g>
   <g id="patch_77">
    <path clip-path="url(#p36797d2564)" d="M 303.054545 315 
L 305.590909 315 
L 305.590909 288.026254 
L 303.054545 288.026254 
z
" style="fill:#1f77b4;"/>
   </g>
   <g id="patch_78">
    <path clip-path="url(#p36797d2564)" d="M 305.590909 315 
L 308.127273 315 
L 308.127273 289.969817 
L 305.590909 289.969817 
z
" style="fill:#1f77b4;"/>
   </g>
   <g id="patch_79">
    <path clip-path="url(#p36797d2564)" d="M 308.127273 315 
L 310.663636 315 
L 310.663636 289.860832 
L 308.127273 289.860832 
z
" style="fill:#1f77b4;"/>
   </g>
   <g id="patch_80">
    <path clip-path="url(#p36797d2564)" d="M 310.663636 315 
L 313.2 315 
L 313.2 292.603617 
L 310.663636 292.603617 
z
" style="fill:#1f77b4;"/>
   </g>
   <g id="patch_81">
    <path clip-path="url(#p36797d2564)" d="M 313.2 315 
L 315.736364 315 
L 315.736364 293.602644 
L 313.2 293.602644 
z
" style="fill:#1f77b4;"/>
   </g>
   <g id="patch_82">
    <path clip-path="url(#p36797d2564)" d="M 315.736364 315 
L 318.272727 315 
L 318.272727 291.713574 
L 315.736364 291.713574 
z
" style="fill:#1f77b4;"/>
   </g>
   <g id="patch_83">
    <path clip-path="url(#p36797d2564)" d="M 318.272727 315 
L 320.809091 315 
L 320.809091 294.420031 
L 318.272727 294.420031 
z
" style="fill:#1f77b4;"/>
   </g>
   <g id="patch_84">
    <path clip-path="url(#p36797d2564)" d="M 320.809091 315 
L 323.345455 315 
L 323.345455 293.402839 
L 320.809091 293.402839 
z
" style="fill:#1f77b4;"/>
   </g>
   <g id="patch_85">
    <path clip-path="url(#p36797d2564)" d="M 323.345455 315 
L 325.881818 315 
L 325.881818 293.112213 
L 323.345455 293.112213 
z
" style="fill:#1f77b4;"/>
   </g>
   <g id="patch_86">
    <path clip-path="url(#p36797d2564)" d="M 325.881818 315 
L 328.418182 315 
L 328.418182 295.092104 
L 325.881818 295.092104 
z
" style="fill:#1f77b4;"/>
   </g>
   <g id="patch_87">
    <path clip-path="url(#p36797d2564)" d="M 328.418182 315 
L 330.954545 315 
L 330.954545 295.618864 
L 328.418182 295.618864 
z
" style="fill:#1f77b4;"/>
   </g>
   <g id="patch_88">
    <path clip-path="url(#p36797d2564)" d="M 330.954545 315 
L 333.490909 315 
L 333.490909 296.690548 
L 330.954545 296.690548 
z
" style="fill:#1f77b4;"/>
   </g>
   <g id="patch_89">
    <path clip-path="url(#p36797d2564)" d="M 333.490909 315 
L 336.027273 315 
L 336.027273 297.126487 
L 333.490909 297.126487 
z
" style="fill:#1f77b4;"/>
   </g>
   <g id="patch_90">
    <path clip-path="url(#p36797d2564)" d="M 336.027273 315 
L 338.563636 315 
L 338.563636 295.982147 
L 336.027273 295.982147 
z
" style="fill:#1f77b4;"/>
   </g>
   <g id="patch_91">
    <path clip-path="url(#p36797d2564)" d="M 338.563636 315 
L 341.1 315 
L 341.1 296.072967 
L 338.563636 296.072967 
z
" style="fill:#1f77b4;"/>
   </g>
   <g id="patch_92">
    <path clip-path="url(#p36797d2564)" d="M 341.1 315 
L 343.636364 315 
L 343.636364 296.74504 
L 341.1 296.74504 
z
" style="fill:#1f77b4;"/>
   </g>
   <g id="patch_93">
    <path clip-path="url(#p36797d2564)" d="M 343.636364 315 
L 346.172727 315 
L 346.172727 298.034694 
L 343.636364 298.034694 
z
" style="fill:#1f77b4;"/>
   </g>
   <g id="patch_94">
    <path clip-path="url(#p36797d2564)" d="M 346.172727 315 
L 348.709091 315 
L 348.709091 298.597783 
L 346.172727 298.597783 
z
" style="fill:#1f77b4;"/>
   </g>
   <g id="patch_95">
    <path clip-path="url(#p36797d2564)" d="M 348.709091 315 
L 351.245455 315 
L 351.245455 297.580591 
L 348.709091 297.580591 
z
" style="fill:#1f77b4;"/>
   </g>
   <g id="patch_96">
    <path clip-path="url(#p36797d2564)" d="M 351.245455 315 
L 353.781818 315 
L 353.781818 298.434305 
L 351.245455 298.434305 
z
" style="fill:#1f77b4;"/>
   </g>
   <g id="patch_97">
    <path clip-path="url(#p36797d2564)" d="M 353.781818 315 
L 356.318182 315 
L 356.318182 297.962038 
L 353.781818 297.962038 
z
" style="fill:#1f77b4;"/>
   </g>
   <g id="patch_98">
    <path clip-path="url(#p36797d2564)" d="M 356.318182 315 
L 358.854545 315 
L 358.854545 299.851108 
L 356.318182 299.851108 
z
" style="fill:#1f77b4;"/>
   </g>
   <g id="patch_99">
    <path clip-path="url(#p36797d2564)" d="M 358.854545 315 
L 361.390909 315 
L 361.390909 300.069078 
L 358.854545 300.069078 
z
" style="fill:#1f77b4;"/>
   </g>
   <g id="patch_100">
    <path clip-path="url(#p36797d2564)" d="M 361.390909 315 
L 363.927273 315 
L 363.927273 298.379813 
L 361.390909 298.379813 
z
" style="fill:#1f77b4;"/>
   </g>
   <g id="patch_101">
    <path clip-path="url(#p36797d2564)" d="M 363.927273 315 
L 366.463636 315 
L 366.463636 301.158926 
L 363.927273 301.158926 
z
" style="fill:#1f77b4;"/>
   </g>
   <g id="patch_102">
    <path clip-path="url(#p36797d2564)" d="M 366.463636 315 
L 369 315 
L 369 299.996421 
L 366.463636 299.996421 
z
" style="fill:#1f77b4;"/>
   </g>
   <g id="patch_103">
    <path clip-path="url(#p36797d2564)" d="M 369 315 
L 371.536364 315 
L 371.536364 299.306184 
L 369 299.306184 
z
" style="fill:#1f77b4;"/>
   </g>
   <g id="patch_104">
    <path clip-path="url(#p36797d2564)" d="M 371.536364 315 
L 374.072727 315 
L 374.072727 300.777479 
L 371.536364 300.777479 
z
" style="fill:#1f77b4;"/>
   </g>
   <g id="patch_105">
    <path clip-path="url(#p36797d2564)" d="M 374.072727 315 
L 376.609091 315 
L 376.609091 300.686659 
L 374.072727 300.686659 
z
" style="fill:#1f77b4;"/>
   </g>
   <g id="patch_106">
    <path clip-path="url(#p36797d2564)" d="M 376.609091 315 
L 379.145455 315 
L 379.145455 301.61303 
L 376.609091 301.61303 
z
" style="fill:#1f77b4;"/>
   </g>
   <g id="patch_107">
    <path clip-path="url(#p36797d2564)" d="M 379.145455 315 
L 381.681818 315 
L 381.681818 301.304239 
L 379.145455 301.304239 
z
" style="fill:#1f77b4;"/>
   </g>
   <g id="patch_108">
    <path clip-path="url(#p36797d2564)" d="M 381.681818 315 
L 384.218182 315 
L 384.218182 301.722014 
L 381.681818 301.722014 
z
" style="fill:#1f77b4;"/>
   </g>
   <g id="patch_109">
    <path clip-path="url(#p36797d2564)" d="M 384.218182 315 
L 386.754545 315 
L 386.754545 302.739206 
L 384.218182 302.739206 
z
" style="fill:#1f77b4;"/>
   </g>
   <g id="patch_110">
    <path clip-path="url(#p36797d2564)" d="M 386.754545 315 
L 389.290909 315 
L 389.290909 301.249747 
L 386.754545 301.249747 
z
" style="fill:#1f77b4;"/>
   </g>
   <g id="patch_111">
    <path clip-path="url(#p36797d2564)" d="M 389.290909 315 
L 391.827273 315 
L 391.827273 302.884519 
L 389.290909 302.884519 
z
" style="fill:#1f77b4;"/>
   </g>
   <g id="patch_112">
    <path clip-path="url(#p36797d2564)" d="M 391.827273 315 
L 394.363636 315 
L 394.363636 303.047997 
L 391.827273 303.047997 
z
" style="fill:#1f77b4;"/>
   </g>
   <g id="patch_113">
    <path clip-path="url(#p36797d2564)" d="M 394.363636 315 
L 396.9 315 
L 396.9 302.793699 
L 394.363636 302.793699 
z
" style="fill:#1f77b4;"/>
   </g>
   <g id="patch_114">
    <path clip-path="url(#p36797d2564)" d="M 396.9 315 
L 399.436364 315 
L 399.436364 303.011668 
L 396.9 303.011668 
z
" style="fill:#1f77b4;"/>
   </g>
   <g id="patch_115">
    <path clip-path="url(#p36797d2564)" d="M 399.436364 315 
L 401.972727 315 
L 401.972727 302.103461 
L 399.436364 302.103461 
z
" style="fill:#1f77b4;"/>
   </g>
   <g id="patch_116">
    <path clip-path="url(#p36797d2564)" d="M 401.972727 315 
L 404.509091 315 
L 404.509091 304.065188 
L 401.972727 304.065188 
z
" style="fill:#1f77b4;"/>
   </g>
   <g id="patch_117">
    <path clip-path="url(#p36797d2564)" d="M 404.509091 315 
L 407.045455 315 
L 407.045455 304.755426 
L 404.509091 304.755426 
z
" style="fill:#1f77b4;"/>
   </g>
   <g id="patch_118">
    <path clip-path="url(#p36797d2564)" d="M 407.045455 315 
L 409.581818 315 
L 409.581818 303.829055 
L 407.045455 303.829055 
z
" style="fill:#1f77b4;"/>
   </g>
   <g id="patch_119">
    <path clip-path="url(#p36797d2564)" d="M 409.581818 315 
L 412.118182 315 
L 412.118182 305.318514 
L 409.581818 305.318514 
z
" style="fill:#1f77b4;"/>
   </g>
   <g id="patch_120">
    <path clip-path="url(#p36797d2564)" d="M 412.118182 315 
L 414.654545 315 
L 414.654545 304.446635 
L 412.118182 304.446635 
z
" style="fill:#1f77b4;"/>
   </g>
   <g id="patch_121">
    <path clip-path="url(#p36797d2564)" d="M 414.654545 315 
L 417.190909 315 
L 417.190909 305.173201 
L 414.654545 305.173201 
z
" style="fill:#1f77b4;"/>
   </g>
   <g id="patch_122">
    <path clip-path="url(#p36797d2564)" d="M 417.190909 315 
L 419.727273 315 
L 419.727273 305.373006 
L 417.190909 305.373006 
z
" style="fill:#1f77b4;"/>
   </g>
   <g id="patch_123">
    <path clip-path="url(#p36797d2564)" d="M 419.727273 315 
L 422.263636 315 
L 422.263636 305.82711 
L 419.727273 305.82711 
z
" style="fill:#1f77b4;"/>
   </g>
   <g id="patch_124">
    <path clip-path="url(#p36797d2564)" d="M 422.263636 315 
L 424.8 315 
L 424.8 305.191365 
L 422.263636 305.191365 
z
" style="fill:#1f77b4;"/>
   </g>
   <g id="patch_125">
    <path clip-path="url(#p36797d2564)" d="M 424.8 315 
L 427.336364 315 
L 427.336364 306.680824 
L 424.8 306.680824 
z
" style="fill:#1f77b4;"/>
   </g>
   <g id="patch_126">
    <path clip-path="url(#p36797d2564)" d="M 427.336364 315 
L 429.872727 315 
L 429.872727 305.699961 
L 427.336364 305.699961 
z
" style="fill:#1f77b4;"/>
   </g>
   <g id="patch_127">
    <path clip-path="url(#p36797d2564)" d="M 429.872727 315 
L 432.409091 315 
L 432.409091 306.190393 
L 429.872727 306.190393 
z
" style="fill:#1f77b4;"/>
   </g>
   <g id="patch_128">
    <path clip-path="url(#p36797d2564)" d="M 432.409091 315 
L 434.945455 315 
L 434.945455 306.063244 
L 432.409091 306.063244 
z
" style="fill:#1f77b4;"/>
   </g>
   <g id="patch_129">
    <path clip-path="url(#p36797d2564)" d="M 434.945455 315 
L 437.481818 315 
L 437.481818 307.534539 
L 434.945455 307.534539 
z
" style="fill:#1f77b4;"/>
   </g>
   <g id="patch_130">
    <path clip-path="url(#p36797d2564)" d="M 437.481818 315 
L 440.018182 315 
L 440.018182 306.898794 
L 437.481818 306.898794 
z
" style="fill:#1f77b4;"/>
   </g>
   <g id="patch_131">
    <path clip-path="url(#p36797d2564)" d="M 440.018182 315 
L 442.554545 315 
L 442.554545 306.66266 
L 440.018182 306.66266 
z
" style="fill:#1f77b4;"/>
   </g>
   <g id="patch_132">
    <path clip-path="url(#p36797d2564)" d="M 442.554545 315 
L 445.090909 315 
L 445.090909 307.498211 
L 442.554545 307.498211 
z
" style="fill:#1f77b4;"/>
   </g>
   <g id="patch_133">
    <path clip-path="url(#p36797d2564)" d="M 445.090909 315 
L 447.627273 315 
L 447.627273 306.553675 
L 445.090909 306.553675 
z
" style="fill:#1f77b4;"/>
   </g>
   <g id="patch_134">
    <path clip-path="url(#p36797d2564)" d="M 447.627273 315 
L 450.163636 315 
L 450.163636 308.097627 
L 447.627273 308.097627 
z
" style="fill:#1f77b4;"/>
   </g>
   <g id="patch_135">
    <path clip-path="url(#p36797d2564)" d="M 450.163636 315 
L 452.7 315 
L 452.7 308.370089 
L 450.163636 308.370089 
z
" style="fill:#1f77b4;"/>
   </g>
   <g id="patch_136">
    <path clip-path="url(#p36797d2564)" d="M 452.7 315 
L 455.236364 315 
L 455.236364 308.024971 
L 452.7 308.024971 
z
" style="fill:#1f77b4;"/>
   </g>
   <g id="patch_137">
    <path clip-path="url(#p36797d2564)" d="M 455.236364 315 
L 457.772727 315 
L 457.772727 308.842357 
L 455.236364 308.842357 
z
" style="fill:#1f77b4;"/>
   </g>
   <g id="patch_138">
    <path clip-path="url(#p36797d2564)" d="M 457.772727 315 
L 460.309091 315 
L 460.309091 308.206612 
L 457.772727 308.206612 
z
" style="fill:#1f77b4;"/>
   </g>
   <g id="patch_139">
    <path clip-path="url(#p36797d2564)" d="M 460.309091 315 
L 462.845455 315 
L 462.845455 308.878685 
L 460.309091 308.878685 
z
" style="fill:#1f77b4;"/>
   </g>
   <g id="patch_140">
    <path clip-path="url(#p36797d2564)" d="M 462.845455 315 
L 465.381818 315 
L 465.381818 308.951342 
L 462.845455 308.951342 
z
" style="fill:#1f77b4;"/>
   </g>
   <g id="patch_141">
    <path clip-path="url(#p36797d2564)" d="M 465.381818 315 
L 467.918182 315 
L 467.918182 308.606223 
L 465.381818 308.606223 
z
" style="fill:#1f77b4;"/>
   </g>
   <g id="patch_142">
    <path clip-path="url(#p36797d2564)" d="M 467.918182 315 
L 470.454545 315 
L 470.454545 309.423609 
L 467.918182 309.423609 
z
" style="fill:#1f77b4;"/>
   </g>
   <g id="patch_143">
    <path clip-path="url(#p36797d2564)" d="M 470.454545 315 
L 472.990909 315 
L 472.990909 309.423609 
L 470.454545 309.423609 
z
" style="fill:#1f77b4;"/>
   </g>
   <g id="patch_144">
    <path clip-path="url(#p36797d2564)" d="M 472.990909 315 
L 475.527273 315 
L 475.527273 308.915013 
L 472.990909 308.915013 
z
" style="fill:#1f77b4;"/>
   </g>
   <g id="patch_145">
    <path clip-path="url(#p36797d2564)" d="M 475.527273 315 
L 478.063636 315 
L 478.063636 308.824193 
L 475.527273 308.824193 
z
" style="fill:#1f77b4;"/>
   </g>
   <g id="patch_146">
    <path clip-path="url(#p36797d2564)" d="M 478.063636 315 
L 480.6 315 
L 480.6 309.968534 
L 478.063636 309.968534 
z
" style="fill:#1f77b4;"/>
   </g>
   <g id="patch_147">
    <path clip-path="url(#p36797d2564)" d="M 480.6 315 
L 483.136364 315 
L 483.136364 309.7324 
L 480.6 309.7324 
z
" style="fill:#1f77b4;"/>
   </g>
   <g id="patch_148">
    <path clip-path="url(#p36797d2564)" d="M 483.136364 315 
L 485.672727 315 
L 485.672727 309.423609 
L 483.136364 309.423609 
z
" style="fill:#1f77b4;"/>
   </g>
   <g id="patch_149">
    <path clip-path="url(#p36797d2564)" d="M 485.672727 315 
L 488.209091 315 
L 488.209091 309.496266 
L 485.672727 309.496266 
z
" style="fill:#1f77b4;"/>
   </g>
   <g id="patch_150">
    <path clip-path="url(#p36797d2564)" d="M 488.209091 315 
L 490.745455 315 
L 490.745455 309.968534 
L 488.209091 309.968534 
z
" style="fill:#1f77b4;"/>
   </g>
   <g id="patch_151">
    <path clip-path="url(#p36797d2564)" d="M 490.745455 315 
L 493.281818 315 
L 493.281818 309.423609 
L 490.745455 309.423609 
z
" style="fill:#1f77b4;"/>
   </g>
   <g id="patch_152">
    <path clip-path="url(#p36797d2564)" d="M 493.281818 315 
L 495.818182 315 
L 495.818182 310.186503 
L 493.281818 310.186503 
z
" style="fill:#1f77b4;"/>
   </g>
   <g id="patch_153">
    <path clip-path="url(#p36797d2564)" d="M 495.818182 315 
L 498.354545 315 
L 498.354545 310.495294 
L 495.818182 310.495294 
z
" style="fill:#1f77b4;"/>
   </g>
   <g id="patch_154">
    <path clip-path="url(#p36797d2564)" d="M 498.354545 315 
L 500.890909 315 
L 500.890909 309.841385 
L 498.354545 309.841385 
z
" style="fill:#1f77b4;"/>
   </g>
   <g id="patch_155">
    <path clip-path="url(#p36797d2564)" d="M 500.890909 315 
L 503.427273 315 
L 503.427273 310.440801 
L 500.890909 310.440801 
z
" style="fill:#1f77b4;"/>
   </g>
   <g id="patch_156">
    <path clip-path="url(#p36797d2564)" d="M 503.427273 315 
L 505.963636 315 
L 505.963636 310.767756 
L 503.427273 310.767756 
z
" style="fill:#1f77b4;"/>
   </g>
   <g id="patch_157">
    <path clip-path="url(#p36797d2564)" d="M 505.963636 315 
L 508.5 315 
L 508.5 310.749592 
L 505.963636 310.749592 
z
" style="fill:#1f77b4;"/>
   </g>
   <g id="patch_158">
    <path clip-path="url(#p36797d2564)" d="M 508.5 315 
L 511.036364 315 
L 511.036364 311.330844 
L 508.5 311.330844 
z
" style="fill:#1f77b4;"/>
   </g>
   <g id="patch_159">
    <path clip-path="url(#p36797d2564)" d="M 511.036364 315 
L 513.572727 315 
L 513.572727 310.640607 
L 511.036364 310.640607 
z
" style="fill:#1f77b4;"/>
   </g>
   <g id="patch_160">
    <path clip-path="url(#p36797d2564)" d="M 513.572727 315 
L 516.109091 315 
L 516.109091 310.822248 
L 513.572727 310.822248 
z
" style="fill:#1f77b4;"/>
   </g>
   <g id="patch_161">
    <path clip-path="url(#p36797d2564)" d="M 516.109091 315 
L 518.645455 315 
L 518.645455 310.894905 
L 516.109091 310.894905 
z
" style="fill:#1f77b4;"/>
   </g>
   <g id="patch_162">
    <path clip-path="url(#p36797d2564)" d="M 518.645455 315 
L 521.181818 315 
L 521.181818 310.78592 
L 518.645455 310.78592 
z
" style="fill:#1f77b4;"/>
   </g>
   <g id="patch_163">
    <path clip-path="url(#p36797d2564)" d="M 521.181818 315 
L 523.718182 315 
L 523.718182 311.203695 
L 521.181818 311.203695 
z
" style="fill:#1f77b4;"/>
   </g>
   <g id="patch_164">
    <path clip-path="url(#p36797d2564)" d="M 523.718182 315 
L 526.254545 315 
L 526.254545 310.804084 
L 523.718182 310.804084 
z
" style="fill:#1f77b4;"/>
   </g>
   <g id="patch_165">
    <path clip-path="url(#p36797d2564)" d="M 526.254545 315 
L 528.790909 315 
L 528.790909 311.276352 
L 526.254545 311.276352 
z
" style="fill:#1f77b4;"/>
   </g>
   <g id="patch_166">
    <path clip-path="url(#p36797d2564)" d="M 528.790909 315 
L 531.327273 315 
L 531.327273 311.385336 
L 528.790909 311.385336 
z
" style="fill:#1f77b4;"/>
   </g>
   <g id="patch_167">
    <path clip-path="url(#p36797d2564)" d="M 531.327273 315 
L 533.863636 315 
L 533.863636 310.931233 
L 531.327273 310.931233 
z
" style="fill:#1f77b4;"/>
   </g>
   <g id="patch_168">
    <path clip-path="url(#p36797d2564)" d="M 533.863636 315 
L 536.4 315 
L 536.4 311.639634 
L 533.863636 311.639634 
z
" style="fill:#1f77b4;"/>
   </g>
   <g id="patch_169">
    <path clip-path="url(#p36797d2564)" d="M 536.4 315 
L 538.936364 315 
L 538.936364 311.31268 
L 536.4 311.31268 
z
" style="fill:#1f77b4;"/>
   </g>
   <g id="patch_170">
    <path clip-path="url(#p36797d2564)" d="M 538.936364 315 
L 541.472727 315 
L 541.472727 312.202723 
L 538.936364 312.202723 
z
" style="fill:#1f77b4;"/>
   </g>
   <g id="patch_171">
    <path clip-path="url(#p36797d2564)" d="M 541.472727 315 
L 544.009091 315 
L 544.009091 312.239051 
L 541.472727 312.239051 
z
" style="fill:#1f77b4;"/>
   </g>
   <g id="patch_172">
    <path clip-path="url(#p36797d2564)" d="M 544.009091 315 
L 546.545455 315 
L 546.545455 311.639634 
L 544.009091 311.639634 
z
" style="fill:#1f77b4;"/>
   </g>
   <g id="patch_173">
    <path clip-path="url(#p36797d2564)" d="M 546.545455 315 
L 549.081818 315 
L 549.081818 311.566978 
L 546.545455 311.566978 
z
" style="fill:#1f77b4;"/>
   </g>
   <g id="patch_174">
    <path clip-path="url(#p36797d2564)" d="M 549.081818 315 
L 551.618182 315 
L 551.618182 311.912096 
L 549.081818 311.912096 
z
" style="fill:#1f77b4;"/>
   </g>
   <g id="patch_175">
    <path clip-path="url(#p36797d2564)" d="M 551.618182 315 
L 554.154545 315 
L 554.154545 312.14823 
L 551.618182 312.14823 
z
" style="fill:#1f77b4;"/>
   </g>
   <g id="patch_176">
    <path clip-path="url(#p36797d2564)" d="M 554.154545 315 
L 556.690909 315 
L 556.690909 312.05741 
L 554.154545 312.05741 
z
" style="fill:#1f77b4;"/>
   </g>
   <g id="patch_177">
    <path clip-path="url(#p36797d2564)" d="M 556.690909 315 
L 559.227273 315 
L 559.227273 312.329872 
L 556.690909 312.329872 
z
" style="fill:#1f77b4;"/>
   </g>
   <g id="patch_178">
    <path clip-path="url(#p36797d2564)" d="M 559.227273 315 
L 561.763636 315 
L 561.763636 312.329872 
L 559.227273 312.329872 
z
" style="fill:#1f77b4;"/>
   </g>
   <g id="patch_179">
    <path clip-path="url(#p36797d2564)" d="M 561.763636 315 
L 564.3 315 
L 564.3 312.184558 
L 561.763636 312.184558 
z
" style="fill:#1f77b4;"/>
   </g>
   <g id="patch_180">
    <path clip-path="url(#p36797d2564)" d="M 564.3 315 
L 566.836364 315 
L 566.836364 312.220887 
L 564.3 312.220887 
z
" style="fill:#1f77b4;"/>
   </g>
   <g id="patch_181">
    <path clip-path="url(#p36797d2564)" d="M 566.836364 315 
L 569.372727 315 
L 569.372727 312.783975 
L 566.836364 312.783975 
z
" style="fill:#1f77b4;"/>
   </g>
   <g id="patch_182">
    <path clip-path="url(#p36797d2564)" d="M 569.372727 315 
L 571.909091 315 
L 571.909091 312.111902 
L 569.372727 312.111902 
z
" style="fill:#1f77b4;"/>
   </g>
   <g id="patch_183">
    <path clip-path="url(#p36797d2564)" d="M 571.909091 315 
L 574.445455 315 
L 574.445455 312.3662 
L 571.909091 312.3662 
z
" style="fill:#1f77b4;"/>
   </g>
   <g id="patch_184">
    <path clip-path="url(#p36797d2564)" d="M 574.445455 315 
L 576.981818 315 
L 576.981818 312.384364 
L 574.445455 312.384364 
z
" style="fill:#1f77b4;"/>
   </g>
   <g id="patch_185">
    <path clip-path="url(#p36797d2564)" d="M 576.981818 315 
L 579.518182 315 
L 579.518182 311.912096 
L 576.981818 311.912096 
z
" style="fill:#1f77b4;"/>
   </g>
   <g id="patch_186">
    <path clip-path="url(#p36797d2564)" d="M 579.518182 315 
L 582.054545 315 
L 582.054545 312.457021 
L 579.518182 312.457021 
z
" style="fill:#1f77b4;"/>
   </g>
   <g id="patch_187">
    <path clip-path="url(#p36797d2564)" d="M 582.054545 315 
L 584.590909 315 
L 584.590909 312.257215 
L 582.054545 312.257215 
z
" style="fill:#1f77b4;"/>
   </g>
   <g id="patch_188">
    <path clip-path="url(#p36797d2564)" d="M 584.590909 315 
L 587.127273 315 
L 587.127273 312.566005 
L 584.590909 312.566005 
z
" style="fill:#1f77b4;"/>
   </g>
   <g id="patch_189">
    <path clip-path="url(#p36797d2564)" d="M 587.127273 315 
L 589.663636 315 
L 589.663636 312.693154 
L 587.127273 312.693154 
z
" style="fill:#1f77b4;"/>
   </g>
   <g id="patch_190">
    <path clip-path="url(#p36797d2564)" d="M 589.663636 315 
L 592.2 315 
L 592.2 312.329872 
L 589.663636 312.329872 
z
" style="fill:#1f77b4;"/>
   </g>
   <g id="patch_191">
    <path clip-path="url(#p36797d2564)" d="M 592.2 315 
L 594.736364 315 
L 594.736364 312.602334 
L 592.2 312.602334 
z
" style="fill:#1f77b4;"/>
   </g>
   <g id="patch_192">
    <path clip-path="url(#p36797d2564)" d="M 594.736364 315 
L 597.272727 315 
L 597.272727 312.093738 
L 594.736364 312.093738 
z
" style="fill:#1f77b4;"/>
   </g>
   <g id="patch_193">
    <path clip-path="url(#p36797d2564)" d="M 597.272727 315 
L 599.809091 315 
L 599.809091 312.765811 
L 597.272727 312.765811 
z
" style="fill:#1f77b4;"/>
   </g>
   <g id="patch_194">
    <path clip-path="url(#p36797d2564)" d="M 599.809091 315 
L 602.345455 315 
L 602.345455 312.711319 
L 599.809091 312.711319 
z
" style="fill:#1f77b4;"/>
   </g>
   <g id="patch_195">
    <path clip-path="url(#p36797d2564)" d="M 602.345455 315 
L 604.881818 315 
L 604.881818 312.3662 
L 602.345455 312.3662 
z
" style="fill:#1f77b4;"/>
   </g>
   <g id="patch_196">
    <path clip-path="url(#p36797d2564)" d="M 604.881818 315 
L 607.418182 315 
L 607.418182 312.493349 
L 604.881818 312.493349 
z
" style="fill:#1f77b4;"/>
   </g>
   <g id="patch_197">
    <path clip-path="url(#p36797d2564)" d="M 607.418182 315 
L 609.954545 315 
L 609.954545 312.457021 
L 607.418182 312.457021 
z
" style="fill:#1f77b4;"/>
   </g>
   <g id="patch_198">
    <path clip-path="url(#p36797d2564)" d="M 609.954545 315 
L 612.490909 315 
L 612.490909 312.693154 
L 609.954545 312.693154 
z
" style="fill:#1f77b4;"/>
   </g>
   <g id="patch_199">
    <path clip-path="url(#p36797d2564)" d="M 612.490909 315 
L 615.027273 315 
L 615.027273 313.020109 
L 612.490909 313.020109 
z
" style="fill:#1f77b4;"/>
   </g>
   <g id="patch_200">
    <path clip-path="url(#p36797d2564)" d="M 615.027273 315 
L 617.563636 315 
L 617.563636 312.58417 
L 615.027273 312.58417 
z
" style="fill:#1f77b4;"/>
   </g>
   <g id="patch_201">
    <path clip-path="url(#p36797d2564)" d="M 617.563636 315 
L 620.1 315 
L 620.1 312.820303 
L 617.563636 312.820303 
z
" style="fill:#1f77b4;"/>
   </g>
   <g id="patch_202">
    <path clip-path="url(#p36797d2564)" d="M 620.1 315 
L 622.636364 315 
L 622.636364 312.021081 
L 620.1 312.021081 
z
" style="fill:#1f77b4;"/>
   </g>
   <g id="matplotlib.axis_1">
    <g id="xtick_1">
     <g id="line2d_1">
      <defs>
       <path d="M 0 0 
L 0 3.5 
" id="m2f8ead13c5" style="stroke:#000000;stroke-width:0.8;"/>
      </defs>
      <g>
       <use style="stroke:#000000;stroke-width:0.8;" x="97.715563" xlink:href="#m2f8ead13c5" y="315"/>
      </g>
     </g>
     <g id="text_1">
      <!-- 0.0 -->
      <defs>
       <path d="M 31.78125 66.40625 
Q 24.171875 66.40625 20.328125 58.90625 
Q 16.5 51.421875 16.5 36.375 
Q 16.5 21.390625 20.328125 13.890625 
Q 24.171875 6.390625 31.78125 6.390625 
Q 39.453125 6.390625 43.28125 13.890625 
Q 47.125 21.390625 47.125 36.375 
Q 47.125 51.421875 43.28125 58.90625 
Q 39.453125 66.40625 31.78125 66.40625 
z
M 31.78125 74.21875 
Q 44.046875 74.21875 50.515625 64.515625 
Q 56.984375 54.828125 56.984375 36.375 
Q 56.984375 17.96875 50.515625 8.265625 
Q 44.046875 -1.421875 31.78125 -1.421875 
Q 19.53125 -1.421875 13.0625 8.265625 
Q 6.59375 17.96875 6.59375 36.375 
Q 6.59375 54.828125 13.0625 64.515625 
Q 19.53125 74.21875 31.78125 74.21875 
z
" id="DejaVuSans-48"/>
       <path d="M 10.6875 12.40625 
L 21 12.40625 
L 21 0 
L 10.6875 0 
z
" id="DejaVuSans-46"/>
      </defs>
      <g transform="translate(89.764 329.598437)scale(0.1 -0.1)">
       <use xlink:href="#DejaVuSans-48"/>
       <use x="63.623047" xlink:href="#DejaVuSans-46"/>
       <use x="95.410156" xlink:href="#DejaVuSans-48"/>
      </g>
     </g>
    </g>
    <g id="xtick_2">
     <g id="line2d_2">
      <g>
       <use style="stroke:#000000;stroke-width:0.8;" x="202.728893" xlink:href="#m2f8ead13c5" y="315"/>
      </g>
     </g>
     <g id="text_2">
      <!-- 0.2 -->
      <defs>
       <path d="M 19.1875 8.296875 
L 53.609375 8.296875 
L 53.609375 0 
L 7.328125 0 
L 7.328125 8.296875 
Q 12.9375 14.109375 22.625 23.890625 
Q 32.328125 33.6875 34.8125 36.53125 
Q 39.546875 41.84375 41.421875 45.53125 
Q 43.3125 49.21875 43.3125 52.78125 
Q 43.3125 58.59375 39.234375 62.25 
Q 35.15625 65.921875 28.609375 65.921875 
Q 23.96875 65.921875 18.8125 64.3125 
Q 13.671875 62.703125 7.8125 59.421875 
L 7.8125 69.390625 
Q 13.765625 71.78125 18.9375 73 
Q 24.125 74.21875 28.421875 74.21875 
Q 39.75 74.21875 46.484375 68.546875 
Q 53.21875 62.890625 53.21875 53.421875 
Q 53.21875 48.921875 51.53125 44.890625 
Q 49.859375 40.875 45.40625 35.40625 
Q 44.1875 33.984375 37.640625 27.21875 
Q 31.109375 20.453125 19.1875 8.296875 
z
" id="DejaVuSans-50"/>
      </defs>
      <g transform="translate(194.777331 329.598437)scale(0.1 -0.1)">
       <use xlink:href="#DejaVuSans-48"/>
       <use x="63.623047" xlink:href="#DejaVuSans-46"/>
       <use x="95.410156" xlink:href="#DejaVuSans-50"/>
      </g>
     </g>
    </g>
    <g id="xtick_3">
     <g id="line2d_3">
      <g>
       <use style="stroke:#000000;stroke-width:0.8;" x="307.742224" xlink:href="#m2f8ead13c5" y="315"/>
      </g>
     </g>
     <g id="text_3">
      <!-- 0.4 -->
      <defs>
       <path d="M 37.796875 64.3125 
L 12.890625 25.390625 
L 37.796875 25.390625 
z
M 35.203125 72.90625 
L 47.609375 72.90625 
L 47.609375 25.390625 
L 58.015625 25.390625 
L 58.015625 17.1875 
L 47.609375 17.1875 
L 47.609375 0 
L 37.796875 0 
L 37.796875 17.1875 
L 4.890625 17.1875 
L 4.890625 26.703125 
z
" id="DejaVuSans-52"/>
      </defs>
      <g transform="translate(299.790661 329.598437)scale(0.1 -0.1)">
       <use xlink:href="#DejaVuSans-48"/>
       <use x="63.623047" xlink:href="#DejaVuSans-46"/>
       <use x="95.410156" xlink:href="#DejaVuSans-52"/>
      </g>
     </g>
    </g>
    <g id="xtick_4">
     <g id="line2d_4">
      <g>
       <use style="stroke:#000000;stroke-width:0.8;" x="412.755554" xlink:href="#m2f8ead13c5" y="315"/>
      </g>
     </g>
     <g id="text_4">
      <!-- 0.6 -->
      <defs>
       <path d="M 33.015625 40.375 
Q 26.375 40.375 22.484375 35.828125 
Q 18.609375 31.296875 18.609375 23.390625 
Q 18.609375 15.53125 22.484375 10.953125 
Q 26.375 6.390625 33.015625 6.390625 
Q 39.65625 6.390625 43.53125 10.953125 
Q 47.40625 15.53125 47.40625 23.390625 
Q 47.40625 31.296875 43.53125 35.828125 
Q 39.65625 40.375 33.015625 40.375 
z
M 52.59375 71.296875 
L 52.59375 62.3125 
Q 48.875 64.0625 45.09375 64.984375 
Q 41.3125 65.921875 37.59375 65.921875 
Q 27.828125 65.921875 22.671875 59.328125 
Q 17.53125 52.734375 16.796875 39.40625 
Q 19.671875 43.65625 24.015625 45.921875 
Q 28.375 48.1875 33.59375 48.1875 
Q 44.578125 48.1875 50.953125 41.515625 
Q 57.328125 34.859375 57.328125 23.390625 
Q 57.328125 12.15625 50.6875 5.359375 
Q 44.046875 -1.421875 33.015625 -1.421875 
Q 20.359375 -1.421875 13.671875 8.265625 
Q 6.984375 17.96875 6.984375 36.375 
Q 6.984375 53.65625 15.1875 63.9375 
Q 23.390625 74.21875 37.203125 74.21875 
Q 40.921875 74.21875 44.703125 73.484375 
Q 48.484375 72.75 52.59375 71.296875 
z
" id="DejaVuSans-54"/>
      </defs>
      <g transform="translate(404.803992 329.598437)scale(0.1 -0.1)">
       <use xlink:href="#DejaVuSans-48"/>
       <use x="63.623047" xlink:href="#DejaVuSans-46"/>
       <use x="95.410156" xlink:href="#DejaVuSans-54"/>
      </g>
     </g>
    </g>
    <g id="xtick_5">
     <g id="line2d_5">
      <g>
       <use style="stroke:#000000;stroke-width:0.8;" x="517.768885" xlink:href="#m2f8ead13c5" y="315"/>
      </g>
     </g>
     <g id="text_5">
      <!-- 0.8 -->
      <defs>
       <path d="M 31.78125 34.625 
Q 24.75 34.625 20.71875 30.859375 
Q 16.703125 27.09375 16.703125 20.515625 
Q 16.703125 13.921875 20.71875 10.15625 
Q 24.75 6.390625 31.78125 6.390625 
Q 38.8125 6.390625 42.859375 10.171875 
Q 46.921875 13.96875 46.921875 20.515625 
Q 46.921875 27.09375 42.890625 30.859375 
Q 38.875 34.625 31.78125 34.625 
z
M 21.921875 38.8125 
Q 15.578125 40.375 12.03125 44.71875 
Q 8.5 49.078125 8.5 55.328125 
Q 8.5 64.0625 14.71875 69.140625 
Q 20.953125 74.21875 31.78125 74.21875 
Q 42.671875 74.21875 48.875 69.140625 
Q 55.078125 64.0625 55.078125 55.328125 
Q 55.078125 49.078125 51.53125 44.71875 
Q 48 40.375 41.703125 38.8125 
Q 48.828125 37.15625 52.796875 32.3125 
Q 56.78125 27.484375 56.78125 20.515625 
Q 56.78125 9.90625 50.3125 4.234375 
Q 43.84375 -1.421875 31.78125 -1.421875 
Q 19.734375 -1.421875 13.25 4.234375 
Q 6.78125 9.90625 6.78125 20.515625 
Q 6.78125 27.484375 10.78125 32.3125 
Q 14.796875 37.15625 21.921875 38.8125 
z
M 18.3125 54.390625 
Q 18.3125 48.734375 21.84375 45.5625 
Q 25.390625 42.390625 31.78125 42.390625 
Q 38.140625 42.390625 41.71875 45.5625 
Q 45.3125 48.734375 45.3125 54.390625 
Q 45.3125 60.0625 41.71875 63.234375 
Q 38.140625 66.40625 31.78125 66.40625 
Q 25.390625 66.40625 21.84375 63.234375 
Q 18.3125 60.0625 18.3125 54.390625 
z
" id="DejaVuSans-56"/>
      </defs>
      <g transform="translate(509.817322 329.598437)scale(0.1 -0.1)">
       <use xlink:href="#DejaVuSans-48"/>
       <use x="63.623047" xlink:href="#DejaVuSans-46"/>
       <use x="95.410156" xlink:href="#DejaVuSans-56"/>
      </g>
     </g>
    </g>
    <g id="xtick_6">
     <g id="line2d_6">
      <g>
       <use style="stroke:#000000;stroke-width:0.8;" x="622.782215" xlink:href="#m2f8ead13c5" y="315"/>
      </g>
     </g>
     <g id="text_6">
      <!-- 1.0 -->
      <defs>
       <path d="M 12.40625 8.296875 
L 28.515625 8.296875 
L 28.515625 63.921875 
L 10.984375 60.40625 
L 10.984375 69.390625 
L 28.421875 72.90625 
L 38.28125 72.90625 
L 38.28125 8.296875 
L 54.390625 8.296875 
L 54.390625 0 
L 12.40625 0 
z
" id="DejaVuSans-49"/>
      </defs>
      <g transform="translate(614.830653 329.598437)scale(0.1 -0.1)">
       <use xlink:href="#DejaVuSans-49"/>
       <use x="63.623047" xlink:href="#DejaVuSans-46"/>
       <use x="95.410156" xlink:href="#DejaVuSans-48"/>
      </g>
     </g>
    </g>
   </g>
   <g id="matplotlib.axis_2">
    <g id="ytick_1">
     <g id="line2d_7">
      <defs>
       <path d="M 0 0 
L -3.5 0 
" id="m9e0dda2d3f" style="stroke:#000000;stroke-width:0.8;"/>
      </defs>
      <g>
       <use style="stroke:#000000;stroke-width:0.8;" x="90" xlink:href="#m9e0dda2d3f" y="315"/>
      </g>
     </g>
     <g id="text_7">
      <!-- 0 -->
      <g transform="translate(76.6375 318.799219)scale(0.1 -0.1)">
       <use xlink:href="#DejaVuSans-48"/>
      </g>
     </g>
    </g>
    <g id="ytick_2">
     <g id="line2d_8">
      <g>
       <use style="stroke:#000000;stroke-width:0.8;" x="90" xlink:href="#m9e0dda2d3f" y="278.671722"/>
      </g>
     </g>
     <g id="text_8">
      <!-- 2000 -->
      <g transform="translate(57.55 282.470941)scale(0.1 -0.1)">
       <use xlink:href="#DejaVuSans-50"/>
       <use x="63.623047" xlink:href="#DejaVuSans-48"/>
       <use x="127.246094" xlink:href="#DejaVuSans-48"/>
       <use x="190.869141" xlink:href="#DejaVuSans-48"/>
      </g>
     </g>
    </g>
    <g id="ytick_3">
     <g id="line2d_9">
      <g>
       <use style="stroke:#000000;stroke-width:0.8;" x="90" xlink:href="#m9e0dda2d3f" y="242.343445"/>
      </g>
     </g>
     <g id="text_9">
      <!-- 4000 -->
      <g transform="translate(57.55 246.142663)scale(0.1 -0.1)">
       <use xlink:href="#DejaVuSans-52"/>
       <use x="63.623047" xlink:href="#DejaVuSans-48"/>
       <use x="127.246094" xlink:href="#DejaVuSans-48"/>
       <use x="190.869141" xlink:href="#DejaVuSans-48"/>
      </g>
     </g>
    </g>
    <g id="ytick_4">
     <g id="line2d_10">
      <g>
       <use style="stroke:#000000;stroke-width:0.8;" x="90" xlink:href="#m9e0dda2d3f" y="206.015167"/>
      </g>
     </g>
     <g id="text_10">
      <!-- 6000 -->
      <g transform="translate(57.55 209.814386)scale(0.1 -0.1)">
       <use xlink:href="#DejaVuSans-54"/>
       <use x="63.623047" xlink:href="#DejaVuSans-48"/>
       <use x="127.246094" xlink:href="#DejaVuSans-48"/>
       <use x="190.869141" xlink:href="#DejaVuSans-48"/>
      </g>
     </g>
    </g>
    <g id="ytick_5">
     <g id="line2d_11">
      <g>
       <use style="stroke:#000000;stroke-width:0.8;" x="90" xlink:href="#m9e0dda2d3f" y="169.686889"/>
      </g>
     </g>
     <g id="text_11">
      <!-- 8000 -->
      <g transform="translate(57.55 173.486108)scale(0.1 -0.1)">
       <use xlink:href="#DejaVuSans-56"/>
       <use x="63.623047" xlink:href="#DejaVuSans-48"/>
       <use x="127.246094" xlink:href="#DejaVuSans-48"/>
       <use x="190.869141" xlink:href="#DejaVuSans-48"/>
      </g>
     </g>
    </g>
    <g id="ytick_6">
     <g id="line2d_12">
      <g>
       <use style="stroke:#000000;stroke-width:0.8;" x="90" xlink:href="#m9e0dda2d3f" y="133.358611"/>
      </g>
     </g>
     <g id="text_12">
      <!-- 10000 -->
      <g transform="translate(51.1875 137.15783)scale(0.1 -0.1)">
       <use xlink:href="#DejaVuSans-49"/>
       <use x="63.623047" xlink:href="#DejaVuSans-48"/>
       <use x="127.246094" xlink:href="#DejaVuSans-48"/>
       <use x="190.869141" xlink:href="#DejaVuSans-48"/>
       <use x="254.492188" xlink:href="#DejaVuSans-48"/>
      </g>
     </g>
    </g>
    <g id="ytick_7">
     <g id="line2d_13">
      <g>
       <use style="stroke:#000000;stroke-width:0.8;" x="90" xlink:href="#m9e0dda2d3f" y="97.030334"/>
      </g>
     </g>
     <g id="text_13">
      <!-- 12000 -->
      <g transform="translate(51.1875 100.829552)scale(0.1 -0.1)">
       <use xlink:href="#DejaVuSans-49"/>
       <use x="63.623047" xlink:href="#DejaVuSans-50"/>
       <use x="127.246094" xlink:href="#DejaVuSans-48"/>
       <use x="190.869141" xlink:href="#DejaVuSans-48"/>
       <use x="254.492188" xlink:href="#DejaVuSans-48"/>
      </g>
     </g>
    </g>
    <g id="ytick_8">
     <g id="line2d_14">
      <g>
       <use style="stroke:#000000;stroke-width:0.8;" x="90" xlink:href="#m9e0dda2d3f" y="60.702056"/>
      </g>
     </g>
     <g id="text_14">
      <!-- 14000 -->
      <g transform="translate(51.1875 64.501275)scale(0.1 -0.1)">
       <use xlink:href="#DejaVuSans-49"/>
       <use x="63.623047" xlink:href="#DejaVuSans-52"/>
       <use x="127.246094" xlink:href="#DejaVuSans-48"/>
       <use x="190.869141" xlink:href="#DejaVuSans-48"/>
       <use x="254.492188" xlink:href="#DejaVuSans-48"/>
      </g>
     </g>
    </g>
   </g>
   <g id="patch_203">
    <path d="M 90 315 
L 90 43.2 
" style="fill:none;stroke:#000000;stroke-linecap:square;stroke-linejoin:miter;stroke-width:0.8;"/>
   </g>
   <g id="patch_204">
    <path d="M 648 315 
L 648 43.2 
" style="fill:none;stroke:#000000;stroke-linecap:square;stroke-linejoin:miter;stroke-width:0.8;"/>
   </g>
   <g id="patch_205">
    <path d="M 90 315 
L 648 315 
" style="fill:none;stroke:#000000;stroke-linecap:square;stroke-linejoin:miter;stroke-width:0.8;"/>
   </g>
   <g id="patch_206">
    <path d="M 90 43.2 
L 648 43.2 
" style="fill:none;stroke:#000000;stroke-linecap:square;stroke-linejoin:miter;stroke-width:0.8;"/>
   </g>
  </g>
 </g>
 <defs>
  <clipPath id="p36797d2564">
   <rect height="271.8" width="558" x="90" y="43.2"/>
  </clipPath>
 </defs>
</svg>
